# xmcd
# 
# Track frame offsets:
#     150
#     24907
#     44463
#     61337
#     81891
#     99079
#     124318
#     145765
#     163801
#     176891
#     191765
#     207096
# 
# Disc length: 3002
# 
# Revision: 0
# Processed by: cddbd v1.5.2PL0 Copyright (c) Steve Scherf et al.
# Submitted via: fre:ac v1.0.31
# 
DISCID=a30bb80c
DTITLE=Miller Anderson - Collectors Premium: Chameleon
DYEAR=2007
DGENRE=Blues
TTITLE0=City Blues
TTITLE1=By the light
TTITLE2=Bad mouth mama
TTITLE3=Fog on the Highway
TTITLE4=Little Brother
TTITLE5=Me and my woman
TTITLE6=Rich man, poor man
TTITLE7=Eye on the prize
TTITLE8=The dreamer
TTITLE9=Sing your song
TTITLE10=Nothing is any fun
TTITLE11=Late at night
EXTD=
EXTT0=
EXTT1=
EXTT2=
EXTT3=
EXTT4=
EXTT5=
EXTT6=
EXTT7=
EXTT8=
EXTT9=
EXTT10=
EXTT11=
PLAYORDER=
